HIERARCHY
ROOT Hips
{
	OFFSET 0.00000 0.00000 0.00000
	CHANNELS 6 Xposition Yposition Zposition Zrotation Yrotation Xrotation 
	JOINT LHipJoint
	{
		OFFSET 0 0 0
		CHANNELS 3 Zrotation Yrotation Xrotation
		JOINT LeftUpLeg
		{
			OFFSET 1.57338 -1.94743 0.52196
			CHANNELS 3 Zrotation Yrotation Xrotation
			JOINT LeftLeg
			{
				OFFSET 2.60333 -7.15259 0.00000
				CHANNELS 3 Zrotation Yrotation Xrotation
				JOINT LeftFoot
				{
					OFFSET 2.77855 -7.63400 0.00000
					CHANNELS 3 Zrotation Yrotation Xrotation
					JOINT LeftToeBase
					{
						OFFSET 0.19847 -0.54529 2.28466
						CHANNELS 3 Zrotation Yrotation Xrotation
						End Site
						{
							OFFSET 0.00000 -0.00000 1.17993
						}
					}
				}
			}
		}
	}
	JOINT RHipJoint
	{
		OFFSET 0 0 0
		CHANNELS 3 Zrotation Yrotation Xrotation
		JOINT RightUpLeg
		{
			OFFSET -1.61527 -1.94743 0.52196
			CHANNELS 3 Zrotation Yrotation Xrotation
			JOINT RightLeg
			{
				OFFSET -2.53829 -6.97390 0.00000
				CHANNELS 3 Zrotation Yrotation Xrotation
				JOINT RightFoot
				{
					OFFSET -2.80762 -7.71387 0.00000
					CHANNELS 3 Zrotation Yrotation Xrotation
					JOINT RightToeBase
					{
						OFFSET -0.30536 -0.83898 2.28801
						CHANNELS 3 Zrotation Yrotation Xrotation
						End Site
						{
							OFFSET -0.00000 -0.00000 1.21323
						}
					}
				}
			}
		}
	}
	JOINT LowerBack
	{
		OFFSET 0 0 0
		CHANNELS 3 Zrotation Yrotation Xrotation
		JOINT Spine
		{
			OFFSET -0.04381 1.99497 -0.19778
			CHANNELS 3 Zrotation Yrotation Xrotation
			JOINT Spine1
			{
				OFFSET -0.01959 2.01295 -0.04372
				CHANNELS 3 Zrotation Yrotation Xrotation
				JOINT Neck
				{
					OFFSET 0 0 0
					CHANNELS 3 Zrotation Yrotation Xrotation
					JOINT Neck1
					{
						OFFSET -0.05459 1.76913 0.09708
						CHANNELS 3 Zrotation Yrotation Xrotation
						JOINT Head
						{
							OFFSET 0.09461 1.77368 -0.11172
							CHANNELS 3 Zrotation Yrotation Xrotation
							End Site
							{
								OFFSET 0.03812 1.78157 -0.04834
							}
						}
					}
				}
				JOINT LeftShoulder
				{
					OFFSET 0 0 0
					CHANNELS 3 Zrotation Yrotation Xrotation
					JOINT LeftArm
					{
						OFFSET 3.50922 1.24034 -0.28866
						CHANNELS 3 Zrotation Yrotation Xrotation
						JOINT LeftForeArm
						{
							OFFSET 5.40188 -0.00000 0.00000
							CHANNELS 3 Zrotation Yrotation Xrotation
							JOINT LeftHand
							{
								OFFSET 3.68559 -0.00000 0.00000
								CHANNELS 3 Zrotation Yrotation Xrotation
								JOINT LeftFingerBase
								{
									OFFSET 0 0 0
									CHANNELS 3 Zrotation Yrotation Xrotation
									JOINT LeftHandIndex1
									{
										OFFSET 0.61753 -0.00000 0.00000
										CHANNELS 3 Zrotation Yrotation Xrotation
										End Site
										{
											OFFSET 0.49787 -0.00000 0.00000
										}
									}
								}
								JOINT LThumb
								{
									OFFSET 0 0 0
									CHANNELS 3 Zrotation Yrotation Xrotation
									End Site
									{
										OFFSET 0.50547 -0.00000 0.50547
									}
								}
							}
						}
					}
				}
				JOINT RightShoulder
				{
					OFFSET 0 0 0
					CHANNELS 3 Zrotation Yrotation Xrotation
					JOINT RightArm
					{
						OFFSET -2.95373 1.39649 -0.27346
						CHANNELS 3 Zrotation Yrotation Xrotation
						JOINT RightForeArm
						{
							OFFSET -6.10670 -0.00000 -0.00000
							CHANNELS 3 Zrotation Yrotation Xrotation
							JOINT RightHand
							{
								OFFSET -3.63052 -0.00000 0.00000
								CHANNELS 3 Zrotation Yrotation Xrotation
								JOINT RightFingerBase
								{
									OFFSET 0 0 0
									CHANNELS 3 Zrotation Yrotation Xrotation
									JOINT RightHandIndex1
									{
										OFFSET -0.58385 -0.00000 0.00000
										CHANNELS 3 Zrotation Yrotation Xrotation
										End Site
										{
											OFFSET -0.47071 -0.00000 0.00000
										}
									}
								}
								JOINT RThumb
								{
									OFFSET 0 0 0
									CHANNELS 3 Zrotation Yrotation Xrotation
									End Site
									{
										OFFSET -0.47790 -0.00000 0.47790
									}
								}
							}
						}
					}
				}
			}
		}
	}
}
MOTION
Frames: 13
Frame Time: .0083333
1.1002 10.1326 -7.0308 -361.1860 -66.6278 342.8110 0.0000 0.0000 0.0000 6.3848 -1.2382 -76.8255 19.3228 19.9890 88.0198 0.2666 -7.6468 15.3976 0.3043 -3.5469 -9.8053 0.0000 0.0000 0.0000 -3.8878 4.2060 -78.9699 -20.6070 -19.9912 91.7751 0.0404 -7.3193 4.1442 -0.3290 -3.6865 10.1963 1.4494 1.6218 40.1286 0.0045 1.0583 14.1217 -1.0849 -0.0515 -3.6450 -2.0789 5.8063 -11.7343 0.6898 7.9899 2.6139 1.0540 3.9725 2.7632 0.0000 -0.0000 0.0000 -85.8856 -60.4145 53.8901 32.5728 -42.9991 -13.1298 -0.0000 -0.0000 17.7891 32.6235 19.2351 11.9080 -7.1250 0.0000 -0.0000 4.5187 52.4277 0.8275 0.0000 -0.0000 0.0000 70.7665 56.2746 44.7206 -38.4681 47.1357 -17.3079 0.0000 0.0000 32.3592 -32.6712 12.4185 -7.8520 7.1250 -0.0000 -0.0000 -3.7157 -15.3412 -2.6058
1.0939 10.1362 -7.0261 -361.6810 -66.6770 343.3630 0.0000 0.0000 0.0000 6.6220 -1.2093 -76.9400 19.3329 19.9893 88.0492 0.2809 -7.5276 15.4722 0.2758 -3.3778 -9.3325 0.0000 0.0000 0.0000 -3.7044 4.2245 -79.0178 -20.6039 -19.9913 91.7658 0.0447 -7.3554 4.0626 -0.3567 -3.8369 10.6181 1.6573 1.5932 40.1618 0.0900 1.1120 14.0743 -1.1214 -0.0209 -3.7018 -2.0804 5.7095 -11.8021 0.6932 7.8610 2.5443 1.0490 3.9088 2.7543 -0.0000 -0.0000 0.0000 -85.9993 -60.1521 53.8678 33.2042 -43.4864 -13.5624 -0.0000 -0.0000 16.9182 33.7461 19.7290 12.7090 -7.1250 0.0000 -0.0000 5.6625 53.2220 1.1481 -0.0000 -0.0000 0.0000 70.5867 56.1155 44.6449 -38.6820 47.2694 -17.4649 0.0000 0.0000 32.2605 -32.4796 12.1908 -7.6560 7.1250 -0.0000 -0.0000 -3.6114 -15.6344 -2.5096
1.0866 10.1390 -7.0228 -361.9600 -66.6845 343.7240 0.0000 0.0000 0.0000 6.7549 -1.2402 -77.0572 19.3404 19.9896 88.0711 0.2696 -7.6424 15.4336 0.3105 -3.5821 -9.9039 0.0000 0.0000 0.0000 -3.5823 4.2287 -79.0949 -20.6051 -19.9912 91.7696 0.0455 -7.3575 4.0416 -0.3372 -3.7315 10.3225 1.7208 1.5876 40.1826 0.1659 1.1404 14.0260 -1.0846 -0.0072 -3.7602 -2.0714 5.6229 -11.7242 0.6774 7.7397 2.2173 1.0230 3.8509 2.6312 0.0000 -0.0000 0.0000 -85.9257 -59.9221 53.5433 33.8085 -43.9423 -13.9800 -0.0000 -0.0000 16.7290 34.0340 20.1802 13.1152 -7.1250 0.0000 -0.0000 5.9293 53.8005 1.2864 0.0000 -0.0000 0.0000 70.5156 55.9943 44.6849 -38.7662 47.3217 -17.5267 0.0000 0.0000 32.3519 -32.7554 12.1929 -7.7379 7.1250 -0.0000 -0.0000 -3.7996 -15.5917 -2.6444
1.0796 10.1408 -7.0220 -361.7880 -66.6435 343.6560 0.0000 0.0000 0.0000 6.6867 -1.2823 -77.1263 19.3438 19.9897 88.0812 0.2531 -7.7718 15.3399 0.3449 -3.7736 -10.4405 0.0000 0.0000 0.0000 -3.6296 4.1741 -79.1976 -20.6151 -19.9909 91.7988 0.0440 -7.3277 4.0569 -0.3061 -3.5569 9.8332 1.5870 1.6025 40.1593 0.1638 1.1078 14.0386 -1.0061 -0.0277 -3.7438 -2.0503 5.5359 -11.5915 0.6815 7.6130 1.7643 0.9957 3.7922 2.4554 -0.0000 0.0000 0.0000 -85.5489 -59.8280 53.1583 34.3612 -44.3505 -14.3649 -0.0000 -0.0000 16.4617 34.1357 20.5810 13.4049 -7.1250 0.0000 -0.0000 5.9997 54.2819 1.3723 -0.0000 0.0000 0.0000 70.6378 56.0043 44.9434 -38.7898 47.3363 -17.5441 0.0000 0.0000 32.5582 -33.3141 11.8303 -7.6739 7.1250 -0.0000 -0.0000 -4.2241 -15.9339 -2.9102
1.0740 10.1419 -7.0226 -361.3740 -66.5926 343.3580 0.0000 0.0000 0.0000 6.5368 -1.3276 -77.1726 19.3462 19.9897 88.0882 0.2502 -7.7713 15.2976 0.3437 -3.7673 -10.4229 0.0000 0.0000 0.0000 -3.8039 4.0750 -79.3272 -20.6318 -19.9904 91.8474 0.0406 -7.2721 4.0990 -0.3177 -3.6233 10.0191 1.3658 1.6014 40.0808 0.1094 1.0111 14.1218 -0.9142 -0.0817 -3.6354 -2.1240 5.4596 -11.5974 0.7202 7.5155 1.4172 1.0057 3.7470 2.3365 -0.0000 -0.0000 0.0000 -85.1164 -59.8170 52.6410 34.8483 -44.7035 -14.7066 -0.0000 -0.0000 15.8190 34.6989 20.9161 13.8845 -7.1250 0.0000 -0.0000 6.5887 54.7910 1.5897 -0.0000 -0.0000 0.0000 70.7653 56.1412 45.3159 -38.8130 47.3507 -17.5611 0.0000 0.0000 32.2218 -33.8608 11.6291 -7.7027 7.1250 -0.0000 -0.0000 -4.6225 -16.0903 -3.1707
1.0680 10.1418 -7.0230 -361.2360 -66.5261 343.3650 0.0000 0.0000 0.0000 6.4940 -1.3915 -77.3178 19.3503 19.9899 88.1000 0.2581 -7.6945 15.3282 0.3383 -3.7379 -10.3405 0.0000 0.0000 0.0000 -3.9220 3.9731 -79.5024 -20.6524 -19.9898 91.9078 0.0409 -7.2565 4.0762 -0.3633 -3.8719 10.7167 1.2216 1.5927 40.0021 0.1120 0.9425 14.1777 -0.8123 -0.1210 -3.5549 -2.2587 5.3417 -11.6351 0.7852 7.3702 1.0648 1.0333 3.6782 2.2200 0.0000 0.0000 0.0000 -84.9806 -59.7733 52.2940 35.2960 -45.0223 -15.0223 -0.0000 -0.0000 14.9609 35.6460 20.8338 14.3087 -7.1250 0.0000 -0.0000 7.6540 54.9096 1.8710 0.0000 0.0000 0.0000 70.6741 56.2526 45.4976 -38.8011 47.3433 -17.5524 0.0000 0.0000 31.5232 -34.2520 11.9298 -8.0121 7.1250 -0.0000 -0.0000 -4.8520 -15.6764 -3.3728
1.0616 10.1417 -7.0216 -361.4890 -66.5003 343.7590 0.0000 0.0000 0.0000 6.6137 -1.4216 -77.5165 19.3564 19.9901 88.1181 0.2528 -7.7492 15.3120 0.3556 -3.8312 -10.6024 0.0000 0.0000 0.0000 -3.8089 3.9229 -79.6701 -20.6641 -19.9894 91.9420 0.0441 -7.2721 4.0061 -0.3573 -3.8401 10.6273 1.2824 1.5717 39.9401 0.1344 0.9424 14.1843 -0.8199 -0.1186 -3.5279 -2.3040 5.1547 -11.5279 0.8426 7.1173 0.6040 1.0300 3.5568 2.0473 0.0000 -0.0000 0.0000 -85.1368 -59.6571 52.1850 35.7582 -45.3460 -15.3502 -0.0000 -0.0000 14.4811 36.0345 20.4290 14.2474 -7.1250 0.0000 -0.0000 8.1155 54.5280 1.9092 0.0000 -0.0000 0.0000 70.5644 56.2758 45.5102 -38.7964 47.3404 -17.5489 0.0000 0.0000 31.0184 -34.5511 12.0096 -8.1538 7.1250 -0.0000 -0.0000 -5.0454 -15.5355 -3.5236
1.0568 10.1440 -7.0196 -361.8140 -66.5009 344.1510 0.0000 0.0000 0.0000 6.7636 -1.4668 -77.6135 19.3587 19.9901 88.1246 0.2412 -7.8374 15.2409 0.3778 -3.9477 -10.9297 0.0000 0.0000 0.0000 -3.5947 3.8398 -79.7526 -20.6653 -19.9894 91.9454 0.0419 -7.2151 4.0145 -0.3248 -3.6634 10.1314 1.4709 1.5064 39.9208 0.0900 0.9273 14.1986 -0.9583 -0.1165 -3.5014 -2.2628 4.9773 -11.1841 0.8438 6.8625 -0.0398 0.9819 3.4340 1.7777 -0.0000 0.0000 0.0000 -85.0824 -59.5306 51.9632 36.2655 -45.6949 -15.7122 -0.0000 -0.0000 14.1392 35.9602 20.1412 14.0260 -7.1250 0.0000 -0.0000 8.0491 54.1764 1.8243 -0.0000 0.0000 0.0000 70.6687 56.3089 45.6080 -38.7962 47.3403 -17.5488 0.0000 0.0000 30.6587 -34.9505 11.7094 -8.0732 7.1250 -0.0000 -0.0000 -5.3563 -15.8305 -3.7084
1.0536 10.1487 -7.0186 -361.7680 -66.4790 344.1290 0.0000 0.0000 0.0000 6.7493 -1.5287 -77.5882 19.3540 19.9900 88.1111 0.2537 -7.6660 15.2379 0.3453 -3.7758 -10.4467 0.0000 0.0000 0.0000 -3.6120 3.7632 -79.7588 -20.6640 -19.9894 91.9416 0.0389 -7.1564 4.0447 -0.3329 -3.7080 10.2565 1.4887 1.4711 39.9799 0.0287 0.8828 14.2122 -1.0162 -0.1360 -3.5039 -2.2735 4.8159 -10.6351 0.7740 6.6331 -0.8767 0.9115 3.3224 1.4120 0.0000 -0.0000 0.0000 -84.7694 -59.4135 51.6343 36.7003 -45.9888 -16.0241 -0.0000 -0.0000 13.5719 36.3743 20.1082 14.2102 -7.1250 0.0000 -0.0000 8.5109 54.2305 1.9414 0.0000 -0.0000 0.0000 70.7794 56.3219 45.8155 -38.8485 47.3727 -17.5872 0.0000 0.0000 30.2361 -35.4577 11.3597 -7.9851 7.1250 -0.0000 -0.0000 -5.7482 -16.1704 -3.9401
1.0511 10.1547 -7.0205 -361.3340 -66.4571 343.7330 0.0000 0.0000 0.0000 6.5821 -1.5446 -77.5047 19.3433 19.9897 88.0797 0.2619 -7.5558 15.2377 0.3191 -3.6310 -10.0407 0.0000 0.0000 0.0000 -3.7968 3.7760 -79.7455 -20.6558 -19.9897 91.9179 0.0362 -7.1274 4.0916 -0.3205 -3.6390 10.0632 1.2733 1.5234 40.0663 -0.0167 0.8602 14.2205 -0.9450 -0.1548 -3.5257 -2.5117 4.5658 -10.2831 0.9725 6.3106 -1.5122 0.9739 3.1691 1.1375 -0.0000 0.0000 0.0000 -84.5167 -59.3049 51.3537 37.0103 -46.1954 -16.2475 -0.0000 -0.0000 13.0019 37.0956 20.1779 14.6188 -7.1250 0.0000 -0.0000 9.3153 54.4755 2.1830 -0.0000 0.0000 0.0000 70.7910 56.2957 46.0327 -38.9663 47.4454 -17.6740 0.0000 0.0000 29.7178 -36.0342 10.9967 -7.9002 7.1250 -0.0000 -0.0000 -6.1909 -16.5187 -4.2000
1.0496 10.1598 -7.0228 -361.0240 -66.4468 343.4690 0.0000 0.0000 0.0000 6.4572 -1.5389 -77.4539 19.3299 19.9892 88.0404 0.2499 -7.6619 15.1796 0.3467 -3.7832 -10.4674 0.0000 0.0000 0.0000 -3.9031 3.8411 -79.7353 -20.6432 -19.9901 91.8809 0.0351 -7.1319 4.1241 -0.2979 -3.5094 9.7003 1.1469 1.5626 40.0825 -0.0668 0.8501 14.2753 -0.9291 -0.1643 -3.4723 -2.9308 4.2257 -10.4027 1.5207 5.8953 -1.6906 1.2016 2.9745 1.0832 -0.0000 -0.0000 0.0000 -84.3277 -59.3023 51.2437 37.2470 -46.3516 -16.4185 -0.0000 -0.0000 12.5020 37.6108 20.3253 14.9813 -7.1250 0.0000 -0.0000 9.8937 54.7675 2.3912 -0.0000 -0.0000 0.0000 70.7845 56.3474 46.1357 -39.0347 47.4875 -17.7244 0.0000 0.0000 29.2701 -36.6578 10.7183 -7.8804 7.1250 -0.0000 -0.0000 -6.6559 -16.7606 -4.4844
1.0481 10.1637 -7.0218 -361.1060 -66.4740 343.6290 0.0000 0.0000 0.0000 6.5051 -1.5560 -77.5097 19.3205 19.9889 88.0128 0.2473 -7.6733 15.1554 0.3626 -3.8681 -10.7058 0.0000 0.0000 0.0000 -3.8605 3.9231 -79.7752 -20.6263 -19.9906 91.8314 0.0396 -7.2160 4.0749 -0.2943 -3.4885 9.6417 1.2249 1.5215 40.0044 -0.1170 0.8167 14.3513 -1.0102 -0.1766 -3.3634 -3.2762 3.9203 -10.6246 1.9679 5.5241 -1.7675 1.3944 2.7994 1.0871 0.0000 -0.0000 0.0000 -84.0799 -59.3573 51.1377 37.4451 -46.4812 -16.5620 -0.0000 -0.0000 11.9910 38.1068 20.5705 15.4065 -7.1250 0.0000 -0.0000 10.4568 55.1729 2.6330 0.0000 -0.0000 0.0000 70.8239 56.4575 46.2718 -39.1202 47.5399 -17.7874 0.0000 0.0000 28.9221 -37.2035 10.4984 -7.8752 7.1250 -0.0000 -0.0000 -7.0605 -16.9449 -4.7325
1.0460 10.1675 -7.0199 -361.3870 -66.5219 344.0050 0.0000 0.0000 0.0000 6.6794 -1.6091 -77.6185 19.3150 19.9887 87.9968 0.2561 -7.5691 15.1704 0.3486 -3.7938 -10.4974 0.0000 0.0000 0.0000 -3.7433 3.9746 -79.8604 -20.6100 -19.9911 91.7839 0.0444 -7.3020 4.0236 -0.2960 -3.4982 9.6691 1.3026 1.4662 39.9018 -0.1546 0.7674 14.4186 -1.0720 -0.1970 -3.2572 -3.3645 3.6872 -10.7117 2.1207 5.2212 -1.9732 1.4456 2.6513 1.0394 -0.0000 0.0000 0.0000 -83.7383 -59.3791 50.8182 37.6239 -46.5974 -16.6918 -0.0000 -0.0000 11.4832 38.6106 20.8936 15.8972 -7.1250 0.0000 -0.0000 11.0387 55.6751 2.9174 -0.0000 0.0000 0.0000 70.9929 56.5704 46.5781 -39.2771 47.6358 -17.9033 0.0000 0.0000 28.5944 -37.6640 10.2911 -7.8514 7.1250 -0.0000 -0.0000 -7.4057 -17.1282 -4.9379
